Coordinates
version=1
nRows=6
nColumns=63
inDegrees=yes

Units are S.I. units (second, meters, Newtons, ...)
If the header above contains a line with 'inDegrees', this indicates whether rotational values are in degrees (yes) or radians (no).

endheader
time	pelvis_tilt	pelvis_list	pelvis_rotation	pelvis_tx	pelvis_ty	pelvis_tz	hip_flexion_r	hip_adduction_r	hip_rotation_r	knee_angle_r	knee_angle_r_beta	ankle_angle_r	subtalar_angle_r	mtp_angle_r	hip_flexion_l	hip_adduction_l	hip_rotation_l	knee_angle_l	knee_angle_l_beta	ankle_angle_l	subtalar_angle_l	mtp_angle_l	L5_S1_Flex_Ext	L5_S1_Lat_Bending	L5_S1_axial_rotation	L4_L5_Flex_Ext	L4_L5_Lat_Bending	L4_L5_axial_rotation	L3_L4_Flex_Ext	L3_L4_Lat_Bending	L3_L4_axial_rotation	L2_L3_Flex_Ext	L2_L3_Lat_Bending	L2_L3_axial_rotation	L1_L2_Flex_Ext	L1_L2_Lat_Bending	L1_L2_axial_rotation	L1_T12_Flex_Ext	L1_T12_Lat_Bending	L1_T12_axial_rotation	Abs_r3	Abs_r2	Abs_r1	Abs_t1	Abs_t2	neck_flexion	neck_bending	neck_rotation	arm_flex_r	arm_add_r	arm_rot_r	elbow_flex_r	pro_sup_r	wrist_flex_r	wrist_dev_r	arm_flex_l	arm_add_l	arm_rot_l	elbow_flex_l	pro_sup_l	wrist_flex_l	wrist_dev_l
      1.25423729	     -1.61266432	     -6.23040965	     84.80212657	      0.22403792	      0.88660064	      0.64242187	      2.08931095	     -3.89561132	    -19.32882243	     10.63375496	      0.18559404	     30.15162543	     16.25778846	      0.00000000	      0.63828696	     -2.31431169	     -5.73665584	     10.57841872	      0.18462824	     26.98300936	     -2.83860559	      0.00000000	     -0.12674246	      0.09295140	      0.17987485	     -0.23537343	      0.12362536	      0.19111703	     -0.20822519	      0.22600203	      0.19111703	     -0.14485396	      0.22600203	      0.15739049	     -0.11769305	      0.18954649	      0.14614831	     -0.07242064	      0.14398172	      0.13490614	     -0.90530873	      1.05148481	      1.00040994	      0.00000000	      0.00000000	     17.25418146	     -2.61691571	      5.82955505	     15.88162394	     -8.67143633	    121.76653503	     15.09302869	      9.69657045	      7.62772933	      2.80897576	      2.04560160	    -12.25513976	     44.58218154	     33.06805595	     84.96463058	     -2.86893085	     17.58699165
      1.27118644	     -1.42099275	     -6.27283530	     85.48821439	      0.22442175	      0.88678387	      0.64141265	      1.83649623	     -3.55579570	    -19.30703248	     10.22206770	      0.17840874	     30.02812260	     15.72580822	      0.00000000	      0.77542789	     -2.61791021	     -5.43899873	     10.68921798	      0.18656205	     27.30724896	     -2.09490397	      0.00000000	     -0.12481860	      0.11993575	     -0.00680553	     -0.23180063	      0.15951454	     -0.00723087	     -0.20506449	      0.29161177	     -0.00723087	     -0.14265518	      0.29161177	     -0.00595484	     -0.11590656	      0.24457297	     -0.00552949	     -0.07132135	      0.18578047	     -0.00510415	     -0.89156681	      1.35673715	     -0.03785030	      0.00000000	      0.00000000	     17.52938408	     -2.95279750	      6.03837468	     16.02814351	     -8.70025888	    120.85557555	     15.34818794	      9.23616493	      7.89511954	      3.62409384	      2.12847222	    -12.39035823	     45.71866621	     33.11446607	     85.61260648	     -2.71464986	     17.25036218
      1.28813559	     -1.27735183	     -6.31855498	     86.00497399	      0.22517867	      0.88684256	      0.64035451	      1.60985074	     -3.26393052	    -19.34368893	      9.85583165	      0.17201671	     29.81308955	     15.39586333	      0.00000000	      0.85763169	     -2.88553032	     -5.43509293	     10.75693225	      0.18774389	     27.52204309	     -1.25820546	      0.00000000	     -0.11746172	      0.13740092	     -0.13048061	     -0.21813816	      0.18274323	     -0.13863564	     -0.19297786	      0.33407661	     -0.13863564	     -0.13424700	      0.33407661	     -0.11417053	     -0.10907495	      0.28018796	     -0.10601549	     -0.06711763	      0.21283403	     -0.09786045	     -0.83901731	      1.55430673	     -0.72569399	      0.00000000	      0.00000000	     17.75328198	     -3.41912065	      5.63380140	     15.94068963	     -8.67261756	    120.07967604	     15.45667301	      9.07589738	      7.88107175	      3.92582891	      2.17432807	    -12.63344090	     46.71167503	     33.50157024	     86.08696495	     -2.87951839	     16.96039573
      1.30508475	     -1.11223196	     -6.30140211	     86.52252754	      0.22584577	      0.88685754	      0.63927812	      1.31450111	     -2.97087272	    -19.54361784	      9.55476114	      0.16676204	     29.52314574	     15.15214848	      0.00000000	      0.86259782	     -3.17728344	     -5.55392286	     10.86012316	      0.18954491	     27.70738153	     -0.31137812	      0.00000000	     -0.11355096	      0.15539759	     -0.23331712	     -0.21087550	      0.20667880	     -0.24789944	     -0.18655288	      0.37783371	     -0.24789944	     -0.12977740	      0.37783371	     -0.20415248	     -0.10544343	      0.31688677	     -0.18957016	     -0.06488302	      0.24071087	     -0.17498784	     -0.81108318	      1.75788864	     -1.29763983	      0.00000000	      0.00000000	     17.84759178	     -3.87881866	      4.89754668	     15.76184161	     -8.60600466	    119.77090324	     15.42277670	      9.38612906	      7.75331711	      3.97685068	      2.20281977	    -12.86783475	     47.39482299	     34.10428849	     86.49441971	     -3.17493690	     16.92816874
      1.32203390	     -0.91668387	     -6.21997557	     86.96975760	      0.22668952	      0.88681219	      0.63827054	      0.94820664	     -2.64340630	    -19.84015282	      9.26692708	      0.16173839	     29.19908696	     14.97377191	      0.00000000	      0.76390850	     -3.48988920	     -5.65581935	     10.94044222	      0.19094674	     27.76696459	      0.36709409	      0.00000000	     -0.11509138	      0.17321736	     -0.31013493	     -0.21373620	      0.23037909	     -0.32951837	     -0.18908363	      0.42116070	     -0.32951837	     -0.13153794	      0.42116070	     -0.27136807	     -0.10687386	      0.35322485	     -0.25198463	     -0.06576321	      0.26831369	     -0.23260120	     -0.82208622	      1.95946945	     -1.72487746	      0.00000000	      0.00000000	     17.78266385	     -4.31573908	      3.96455788	     15.60667627	     -8.49401121	    119.98945340	     15.34500029	      9.92835620	      7.59560670	      3.95587779	      2.15624443	    -13.13238860	     47.55998367	     34.92106038	     86.83833395	     -3.35845135	     17.11698381
      1.33898305	     -0.67843994	     -6.09724082	     87.43802272	      0.22729687	      0.88670969	      0.63719606	      0.54754735	     -2.29512154	    -20.24501892	      9.04324276	      0.15783436	     28.90781379	     14.77656374	      0.00000000	      0.60950907	     -3.83749157	     -5.72109788	     11.01166359	      0.19218979	     27.83756226	      1.04754063	      0.00000000	     -0.11928103	      0.19545796	     -0.38236006	     -0.22151681	      0.25995909	     -0.40625756	     -0.19596681	      0.47523649	     -0.40625756	     -0.13632629	      0.47523649	     -0.33456505	     -0.11076437	      0.39857788	     -0.31066755	     -0.06815718	      0.30276438	     -0.28677004	     -0.85201250	      2.21105955	     -2.12657193	      0.00000000	      0.00000000	     17.51693599	     -4.65392081	      2.90930752	     15.44806997	     -8.40808686	    120.45682375	     15.21930170	     10.62418012	      7.44569469	      3.75954809	      2.03993530	    -13.32907785	     47.35891224	     35.79932656	     87.11954513	     -3.48492266	     17.64757853
